<?xml version="1.0" encoding="utf-8"?>
<!-- Generator: Adobe Illustrator 19.0.0, SVG Export Plug-In . SVG Version: 6.00 Build 0)  -->
<svg version="1.1" id="Layer_1" xmlns="http://www.w3.org/2000/svg" xmlns:xlink="http://www.w3.org/1999/xlink" x="0px" y="0px"
	 viewBox="-72 164 466 466" style="enable-background:new -72 164 466 466;" xml:space="preserve">
<style type="text/css">
	.st0{fill:#FFFFFF;}
	.st1{fill:url(#SVGID_1_);}
	.st2{fill:url(#SVGID_2_);}
	.st3{opacity:0.5;}
	.st4{fill:url(#SVGID_3_);}
	.st5{fill:url(#SVGID_4_);}
</style>
<g>
	<path class="st0" d="M59.2,604.6c32,15.5,67.1,23.5,102.7,23.4s70.6-8.4,102.5-24.2l-10.6-21.4c-28.6,14.2-60.1,21.6-92,21.7
		c-31.9,0.1-63.4-7.1-92.1-21L59.2,604.6z"/>
	<path class="st0" d="M-12.1,551c21.9,24.3,48.7,43.7,78.6,57s62.3,20.1,95,20s65.1-7,94.9-20.5c29.9-13.4,56.6-33,78.4-57.4
		l-9.5-8.5c-20.6,23.1-45.8,41.6-74.1,54.3c-28.2,12.7-58.8,19.3-89.7,19.3c-30.9,0.1-61.6-6.4-89.8-18.9
		c-28.3-12.5-53.6-30.9-74.3-53.9L-12.1,551z"/>
	<path class="st0" d="M59.2,604.6c32,15.5,67.1,23.5,102.7,23.4s70.6-8.4,102.5-24.2l-10.6-21.4c-28.6,14.2-60.1,21.6-92,21.7
		c-31.9,0.1-63.4-7.1-92.1-21L59.2,604.6z"/>
	<path class="st0" d="M-12.1,551c21.9,24.3,48.7,43.7,78.6,57s62.3,20.1,95,20s65.1-7,94.9-20.5c29.9-13.4,56.6-33,78.4-57.4
		l-9.5-8.5c-20.6,23.1-45.8,41.6-74.1,54.3c-28.2,12.7-58.8,19.3-89.7,19.3c-30.9,0.1-61.6-6.4-89.8-18.9s-53.6-30.9-74.3-53.9
		L-12.1,551z"/>
	
		<radialGradient id="SVGID_1_" cx="154.6667" cy="310.001" r="134.4784" gradientTransform="matrix(1 0 0 -1 0 796)" gradientUnits="userSpaceOnUse">
		<stop  offset="0" style="stop-color:#152937;stop-opacity:0.5"/>
		<stop  offset="1" style="stop-color:#152937"/>
	</radialGradient>
	<path class="st1" d="M393.8,405.7c-1.2,27-7.1,53.5-17.5,78.5c-11.7,28.3-28.9,54-50.5,75.6s-47.3,38.8-75.6,50.5
		S191.6,628,161,628s-60.9-6-89.2-17.7c-28.3-11.7-54-28.9-75.6-50.5s-38.8-47.3-50.5-75.6c-10.3-25-16.3-51.5-17.5-78.5H393.8z"/>
	<g>
		
			<linearGradient id="SVGID_2_" gradientUnits="userSpaceOnUse" x1="169.9906" y1="351.5374" x2="122.3576" y2="615.9564" gradientTransform="matrix(1 0 0 1 0 4)">
			<stop  offset="0" style="stop-color:#F5F643;stop-opacity:0"/>
			<stop  offset="0.3177" style="stop-color:#EDF458;stop-opacity:8.000000e-002"/>
			<stop  offset="1" style="stop-color:#D7ED80"/>
		</linearGradient>
		<path class="st2" d="M-72,395c0,30.6,6,60.9,17.7,89.2s28.9,54,50.5,75.6s47.3,38.8,75.6,50.5C100.1,622,130.4,628,161,628
			s60.9-6,89.2-17.7s54-28.9,75.6-50.5s38.8-47.3,50.5-75.6S394,425.6,394,395h-1c0,30.5-6,60.6-17.7,88.8S346.6,537.5,325,559
			c-21.5,21.5-47.1,38.6-75.3,50.3C221.6,621,191.5,627,161,627s-60.6-6-88.8-17.7C44.1,597.6,18.5,580.6-3.1,559
			c-21.5-21.5-38.6-47.1-50.3-75.3C-65,455.6-71,425.5-71,395H-72z"/>
		<g class="st3">
			<g>
				
					<linearGradient id="SVGID_3_" gradientUnits="userSpaceOnUse" x1="328.2794" y1="594.7339" x2="-11.4081" y2="543.0429" gradientTransform="matrix(1 0 0 1 0 4)">
					<stop  offset="0" style="stop-color:#D7ED80;stop-opacity:0"/>
					<stop  offset="0.1608" style="stop-color:#DDEF76;stop-opacity:7.000000e-002"/>
					<stop  offset="0.4935" style="stop-color:#E8F261"/>
					<stop  offset="0.8233" style="stop-color:#F1F54E;stop-opacity:0.15"/>
					<stop  offset="1" style="stop-color:#F5F643;stop-opacity:0"/>
				</linearGradient>
				<path class="st4" d="M160.8,630c-33,0-65-6.8-95.1-20.2C35.3,596.3,8.6,577-13.6,552.3l-1.3-1.5l12.5-11.3l1.3,1.5
					c20.7,23,45.5,41,73.6,53.4c27.7,12.3,58.2,18.7,88.3,18.7c0.2,0,0.5,0,0.7,0c30.4,0,61.1-6.6,88.9-19.1
					c28.2-12.6,52.9-30.7,73.4-53.8l1.3-1.5l12.5,11.2l-1.3,1.5c-22.2,24.8-48.8,44.3-79.1,57.9c-29.6,13.4-62.7,20.6-95.7,20.7
					C161.3,630,161,630,160.8,630z M-9.3,551.1c21.5,23.5,47.3,42,76.6,55c29.6,13.2,61,19.8,93.5,19.8c0.2,0,0.5,0,0.7,0
					c32.4-0.1,65-7.1,94.1-20.3c29.2-13.1,54.8-31.7,76.4-55.4l-6.5-5.8c-20.7,22.8-45.4,40.7-73.4,53.3
					c-28.3,12.7-59.6,19.5-90.5,19.5c-0.2,0-0.5,0-0.7,0c-30.7,0-61.8-6.6-89.9-19.1c-28.1-12.4-52.8-30.2-73.6-52.9L-9.3,551.1z"/>
			</g>
		</g>
		<g>
			
				<linearGradient id="SVGID_4_" gradientUnits="userSpaceOnUse" x1="324.4456" y1="619.9288" x2="-15.2428" y2="568.2377" gradientTransform="matrix(1 0 0 1 0 4)">
				<stop  offset="0" style="stop-color:#D7ED80;stop-opacity:0"/>
				<stop  offset="0.1608" style="stop-color:#DDEF76;stop-opacity:7.000000e-002"/>
				<stop  offset="0.4935" style="stop-color:#E8F261"/>
				<stop  offset="0.8233" style="stop-color:#F1F54E;stop-opacity:0.15"/>
				<stop  offset="1" style="stop-color:#F5F643;stop-opacity:0"/>
			</linearGradient>
			<path class="st5" d="M161.3,630c-35.5,0-71-8.2-102.9-23.6l-1.8-0.9l12.3-25.1l1.8,0.9c28.1,13.6,59.4,20.8,90.6,20.8
				c0.2,0,0.4,0,0.6,0c31.5-0.1,63-7.5,91.1-21.5l1.8-0.9l12.4,25l-1.8,0.9c-32,15.9-67.8,24.3-103.4,24.4
				C161.7,630,161.5,630,161.3,630z M61.9,603.7c30.9,14.6,65.2,22.3,99.4,22.3c0.2,0,0.4,0,0.6,0c34.3-0.1,68.8-8.1,99.8-23.1
				l-8.8-17.8c-28.2,13.7-59.7,20.9-91.1,21c-0.2,0-0.4,0-0.7,0c-31.1,0-62.3-7-90.5-20.3L61.9,603.7z"/>
		</g>
	</g>
</g>
</svg>
